<?xml version="1.0" encoding="utf-8"?>
<!-- Generator: Adobe Illustrator 21.0.0, SVG Export Plug-In . SVG Version: 6.00 Build 0)  -->
<svg version="1.1" id="Layer_1" xmlns="http://www.w3.org/2000/svg" xmlns:xlink="http://www.w3.org/1999/xlink" x="0px" y="0px"
	 viewBox="0 0 128 128" style="enable-background:new 0 0 128 128;" xml:space="preserve">
<style type="text/css">
	.st0{fill:#CFF1FB;}
	.st1{fill:#91DEF5;}
	.st2{fill:#F6F7F7;}
	.st3{fill:#FFCFB8;}
	.st4{fill:#FFA77B;}
	.st5{fill:#E9EAEB;}
	.st6{fill:#746887;}
	.st7{fill:#F98770;}
	.st8{fill:#9B9B9B;}
	.st9{fill:#FFDDCF;}
	.st10{fill:#FFFFFF;}
	.st11{fill:#B7B7B7;}
	.st12{fill:#FFBC99;}
	.st13{fill:#DBDCDE;}
	.st14{fill:#FECFBA;}
	.st15{fill:#D0F1FA;}
	.st16{fill:#FDA77F;}
	.st17{fill:#94DEF4;}
</style>
<g>
</g>
<g>
	<g>
		<g>
			<path class="st1" d="M51.588,62.57c0-2.353,1.9-4.261,4.244-4.261h20.58V5.757c0-2.353-1.9-4.261-4.244-4.261h-59.43
				c-2.344,0-4.244,1.908-4.244,4.261v59.665c0,2.354,1.9,4.261,4.244,4.261h38.85V62.57z"/>
		</g>
		<g>
			<path class="st0" d="M115.262,126.496h-59.43c-2.344,0-4.244-1.908-4.244-4.261V62.57c0-2.353,1.9-4.261,4.244-4.261h59.43
				c2.344,0,4.244,1.908,4.244,4.261v59.665C119.506,124.588,117.606,126.496,115.262,126.496z"/>
		</g>
		<g>
			<path class="st3" d="M55.832,126.496h59.43c2.344,0,4.244-1.908,4.244-4.261V106l-18.409-18l-13.124,14.654L73.852,88
				l-22.264,22.894v11.341C51.588,124.588,53.488,126.496,55.832,126.496z"/>
		</g>
		<g>
			<ellipse class="st3" cx="86.909" cy="74" rx="3.984" ry="4"/>
		</g>
	</g>
	<g>
		<g>
			<path class="st6" d="M51.588,71.184h-38.85C9.574,71.184,7,68.599,7,65.422V39.574c0-0.828,0.669-1.5,1.494-1.5
				s1.494,0.672,1.494,1.5v25.848c0,1.522,1.234,2.762,2.75,2.762h37.356V62.57c0-3.177,2.574-5.762,5.738-5.762h19.086V5.757
				c0-1.522-1.233-2.761-2.75-2.761h-59.43c-1.516,0-2.75,1.238-2.75,2.761v25.936c0,0.828-0.669,1.5-1.494,1.5S7,32.521,7,31.692
				V5.757c0-3.177,2.574-5.761,5.738-5.761h59.43c3.164,0,5.738,2.584,5.738,5.761v52.552c0,0.828-0.669,1.5-1.494,1.5h-20.58
				c-1.516,0-2.75,1.239-2.75,2.762v7.113C53.082,70.512,52.414,71.184,51.588,71.184z"/>
		</g>
		<g>
			<path class="st7" d="M115.262,127.996h-59.43c-3.164,0-5.738-2.585-5.738-5.762v-11.34c0-0.392,0.153-0.768,0.425-1.048
				l22.264-22.895c0.281-0.289,0.666-0.452,1.069-0.452c0.001,0,0.002,0,0.004,0c0.404,0.001,0.789,0.166,1.07,0.457l13.006,13.498
				l12.054-13.458c0.271-0.304,0.655-0.482,1.061-0.496c0.404-0.035,0.8,0.14,1.092,0.425l18.409,18
				c0.289,0.282,0.451,0.67,0.451,1.074v16.234C121,125.411,118.426,127.996,115.262,127.996z M53.082,111.505v10.729
				c0,1.522,1.233,2.762,2.75,2.762h59.43c1.516,0,2.75-1.239,2.75-2.762v-15.602l-16.843-16.469l-12.085,13.493
				c-0.277,0.31-0.669,0.489-1.084,0.497c-0.41-0.008-0.813-0.158-1.101-0.457L73.848,90.152L53.082,111.505z"/>
		</g>
		<g>
			<path class="st7" d="M96.401,112.862c-0.389,0-0.778-0.152-1.072-0.455l-8.429-8.708c-0.575-0.594-0.561-1.543,0.031-2.121
				c0.59-0.576,1.536-0.562,2.113,0.031l8.429,8.708c0.575,0.594,0.561,1.543-0.031,2.121
				C97.152,112.722,96.776,112.862,96.401,112.862z"/>
		</g>
		<g>
			<path class="st7" d="M86.909,79.5c-3.02,0-5.478-2.468-5.478-5.5s2.458-5.5,5.478-5.5c3.02,0,5.478,2.468,5.478,5.5
				S89.929,79.5,86.909,79.5z M86.909,71.5c-1.373,0-2.49,1.121-2.49,2.5s1.117,2.5,2.49,2.5s2.49-1.121,2.49-2.5
				S88.283,71.5,86.909,71.5z"/>
		</g>
		<g>
			<path class="st6" d="M115.262,127.996h-59.43c-3.164,0-5.738-2.585-5.738-5.762V62.57c0-3.177,2.574-5.762,5.738-5.762h59.43
				c3.164,0,5.738,2.585,5.738,5.762v25.254c0,0.828-0.669,1.5-1.494,1.5c-0.056,0-0.124-0.004-0.186-0.012
				c-0.759-0.071-1.353-0.713-1.353-1.493c0-0.126,0.016-0.249,0.045-0.366V62.57c0-1.522-1.233-2.762-2.75-2.762h-59.43
				c-1.516,0-2.75,1.239-2.75,2.762v59.664c0,1.522,1.233,2.762,2.75,2.762h59.43c1.516,0,2.75-1.239,2.75-2.762V96.186
				c-0.029-0.117-0.045-0.24-0.045-0.366c0-0.781,0.595-1.423,1.355-1.493c0.062-0.008,0.128-0.012,0.184-0.012
				c0.825,0,1.494,0.672,1.494,1.5v26.42C121,125.411,118.426,127.996,115.262,127.996z"/>
		</g>
		<g>
			<path class="st7" d="M47.067,13.5H15.193c-0.825,0-1.494-0.672-1.494-1.5s0.669-1.5,1.494-1.5h31.874
				c0.825,0,1.494,0.672,1.494,1.5S47.892,13.5,47.067,13.5z"/>
		</g>
		<g>
			<path class="st7" d="M70.972,25.5H15.193c-0.825,0-1.494-0.672-1.494-1.5s0.669-1.5,1.494-1.5h55.779
				c0.825,0,1.494,0.672,1.494,1.5S71.797,25.5,70.972,25.5z"/>
		</g>
		<g>
			<path class="st7" d="M70.972,37.5H15.193c-0.825,0-1.494-0.672-1.494-1.5s0.669-1.5,1.494-1.5h55.779
				c0.825,0,1.494,0.672,1.494,1.5S71.797,37.5,70.972,37.5z"/>
		</g>
		<g>
			<path class="st7" d="M70.972,49.5H15.193c-0.825,0-1.494-0.672-1.494-1.5s0.669-1.5,1.494-1.5h55.779
				c0.825,0,1.494,0.672,1.494,1.5S71.797,49.5,70.972,49.5z"/>
		</g>
		<g>
			<path class="st7" d="M44.079,61.5H15.193c-0.825,0-1.494-0.672-1.494-1.5s0.669-1.5,1.494-1.5h28.886
				c0.825,0,1.494,0.672,1.494,1.5S44.904,61.5,44.079,61.5z"/>
		</g>
	</g>
</g>
</svg>
